<?xml version="1.0" encoding="iso-8859-1"?>
<!-- Generator: Adobe Illustrator 19.0.0, SVG Export Plug-In . SVG Version: 6.00 Build 0)  -->
<svg version="1.1" id="Capa_1" xmlns="http://www.w3.org/2000/svg" xmlns:xlink="http://www.w3.org/1999/xlink" x="0px" y="0px"
	 viewBox="0 0 512.014 512.014" style="enable-background:new 0 0 512.014 512.014;" xml:space="preserve">
<g>
	<g>
		<path d="M447.951,315.525c-6.848-102.08-59.648-201.824-157.248-297.088c-10.208-9.984-18.976-18.272-19.488-18.432
			c-0.512-0.16,0.448,3.776,2.112,8.768c4.32,12.96,7.808,30.592,9.184,46.4c3.968,53.888-3.296,116.576-73.664,154.976
			c-10.688,5.44-9.696,4.352-11.808,2.464c-2.784-2.464-9.152-10.944-13.024-18.848c-6.176-12.576-8.896-23.584-10.752-43.68
			l-1.216-12.832l-12.224,14.368c-14.688,17.312-27.456,34.272-39.776,52.96c-67.744,102.72-74.432,196.448-18.048,253.6
			c44.32,43.456,101.536,62.72,184.352,49.952C383.407,494.885,450.095,432.517,447.951,315.525z"/>
	</g>
</g>
<g>
</g>
<g>
</g>
<g>
</g>
<g>
</g>
<g>
</g>
<g>
</g>
<g>
</g>
<g>
</g>
<g>
</g>
<g>
</g>
<g>
</g>
<g>
</g>
<g>
</g>
<g>
</g>
<g>
</g>
</svg>
